<svg width="430" height="100" viewBox="0 0 860 200" xmlns="http://www.w3.org/2000/svg">
  <rect width="860" height="200" rx="24" fill="#1a1a1a"/>
  <g fill="none" stroke="#FDF6EF" stroke-width="16" stroke-linecap="round" stroke-linejoin="round">
    <path d="M40 170 L40 30"/>
    <path d="M40 30 L108 62 L40 94"/>
    <path d="M162 170 L206 30 L236 30 L280 170"/>
    <path d="M190 108 L252 108"/>
    <path d="M325 170 L325 30"/>
    <path d="M380 170 L380 30 L440 30 L472 100 L440 170 L380 170"/>
    <path d="M515 30 L607 30"/>
    <path d="M537 100 L585 100"/>
    <path d="M515 170 L607 170"/>
    <path d="M655 170 L655 30"/>
    <path d="M702 170 L748 30 L780 30 L822 170"/>
    <path d="M730 108 L794 108"/>
  </g>
</svg>
